<?xml version="1.0" standalone="no"?>
<!DOCTYPE svg PUBLIC "-//W3C//DTD SVG 20010904//EN"
 "http://www.w3.org/TR/2001/REC-SVG-20010904/DTD/svg10.dtd">
<svg version="1.0" xmlns="http://www.w3.org/2000/svg"
 width="126.000000pt" height="126.000000pt" viewBox="0 0 126.000000 126.000000"
 preserveAspectRatio="xMidYMid meet">
<metadata>
Created by potrace 1.11, written by Peter Selinger 2001-2013
</metadata>
<g transform="translate(0.000000,126.000000) scale(0.100000,-0.100000)"
fill="#000000" stroke="none">
<path d="M508 1056 c-77 -22 -135 -55 -194 -108 -80 -73 -122 -154 -138 -260
l-7 -48 455 0 456 0 0 35 0 35 -95 0 c-88 0 -95 1 -95 20 0 16 7 20 35 20 24
0 35 5 35 15 0 12 -14 15 -65 15 -50 0 -65 3 -65 14 0 11 14 16 47 18 26 2 48
9 51 16 2 6 -3 12 -11 12 -8 0 -17 9 -20 20 -4 15 -14 20 -36 20 -21 0 -31 5
-31 15 0 8 7 15 15 15 30 0 15 29 -17 32 -32 3 -53 28 -24 28 11 0 16 9 16 31
0 25 -6 32 -37 46 -51 21 -213 27 -275 9z m-1 -101 c41 -12 73 -62 73 -115 0
-41 -5 -54 -34 -84 -28 -30 -40 -36 -75 -36 -82 0 -131 47 -131 124 0 53 34
101 83 115 32 9 41 8 84 -4z"/>
<path d="M177 603 c-11 -19 17 -132 45 -185 57 -107 151 -183 271 -220 56 -16
85 -19 160 -15 51 3 109 10 130 16 33 11 37 15 37 46 0 29 -4 35 -21 35 -12 0
-19 5 -16 13 2 6 20 12 40 12 29 0 37 4 37 18 0 14 -9 17 -55 17 -42 0 -55 3
-55 15 0 12 15 15 75 15 60 0 75 3 75 15 0 8 7 15 15 15 8 0 15 7 15 15 0 10
-15 15 -57 17 -46 2 -59 7 -61 21 -3 15 6 17 72 17 61 0 76 3 76 15 0 10 -11
15 -35 15 -28 0 -35 4 -35 20 0 19 7 20 95 20 l95 0 0 35 0 35 -449 0 c-248 0
-452 -3 -454 -7z"/>
</g>
</svg>
